<svg id="visual" viewBox="0 0 900 600" width="900" height="600" xmlns="http://www.w3.org/2000/svg" xmlns:xlink="http://www.w3.org/1999/xlink" version="1.1"><rect x="0" y="0" width="900" height="600" fill="#FFCCD2"></rect><path d="M546 0L526.3 25C506.7 50 467.3 100 452.7 150C438 200 448 250 497.7 300C547.3 350 636.7 400 637.2 450C637.7 500 549.3 550 505.2 575L461 600L0 600L0 575C0 550 0 500 0 450C0 400 0 350 0 300C0 250 0 200 0 150C0 100 0 50 0 25L0 0Z" fill="#FFEDED" stroke-linecap="round" stroke-linejoin="miter"></path></svg>