<svg id="visual" viewBox="0 0 900 600" width="900" height="600" xmlns="http://www.w3.org/2000/svg" xmlns:xlink="http://www.w3.org/1999/xlink" version="1.1"><rect x="0" y="0" width="900" height="600" fill="#FFEDED"></rect><path d="M493 600L514.2 587.5C535.3 575 577.7 550 593 525C608.3 500 596.7 475 596.8 450C597 425 609 400 585.8 375C562.7 350 504.3 325 473 300C441.7 275 437.3 250 435.3 225C433.3 200 433.7 175 455.7 150C477.7 125 521.3 100 528.3 75C535.3 50 505.7 25 490.8 12.5L476 0L900 0L900 12.5C900 25 900 50 900 75C900 100 900 125 900 150C900 175 900 200 900 225C900 250 900 275 900 300C900 325 900 350 900 375C900 400 900 425 900 450C900 475 900 500 900 525C900 550 900 575 900 587.5L900 600Z" fill="#FFCCD2" stroke-linecap="round" stroke-linejoin="miter"></path></svg>