<svg id="visual" viewBox="0 0 900 600" width="900" height="600" xmlns="http://www.w3.org/2000/svg" xmlns:xlink="http://www.w3.org/1999/xlink" version="1.1"><rect x="0" y="0" width="900" height="600" fill="#FFEDED"></rect><path d="M629 600L617.5 594.5C606 589 583 578 560.8 566.8C538.7 555.7 517.3 544.3 538.3 533.2C559.3 522 622.7 511 623.8 500C625 489 564 478 538 466.8C512 455.7 521 444.3 541.2 433.2C561.3 422 592.7 411 602 400C611.3 389 598.7 378 612.2 366.8C625.7 355.7 665.3 344.3 679.8 333.2C694.3 322 683.7 311 651.3 300C619 289 565 278 552.7 266.8C540.3 255.7 569.7 244.3 572.8 233.2C576 222 553 211 538.2 200C523.3 189 516.7 178 535.7 166.8C554.7 155.7 599.3 144.3 605.2 133.2C611 122 578 111 576 100C574 89 603 78 629.8 66.8C656.7 55.7 681.3 44.3 657.7 33.2C634 22 562 11 526 5.5L490 0L900 0L900 5.5C900 11 900 22 900 33.2C900 44.3 900 55.7 900 66.8C900 78 900 89 900 100C900 111 900 122 900 133.2C900 144.3 900 155.7 900 166.8C900 178 900 189 900 200C900 211 900 222 900 233.2C900 244.3 900 255.7 900 266.8C900 278 900 289 900 300C900 311 900 322 900 333.2C900 344.3 900 355.7 900 366.8C900 378 900 389 900 400C900 411 900 422 900 433.2C900 444.3 900 455.7 900 466.8C900 478 900 489 900 500C900 511 900 522 900 533.2C900 544.3 900 555.7 900 566.8C900 578 900 589 900 594.5L900 600Z" fill="#FFCCD2" stroke-linecap="round" stroke-linejoin="miter"></path></svg>